<svg xmlns="http://www.w3.org/2000/svg" version="1.1" xmlns:xlink="http://www.w3.org/1999/xlink" xmlns:svgjs="http://svgjs.dev/svgjs" width="1500" height="1500" viewBox="0 0 1500 1500"><rect width="1500" height="1500" fill="#ffffff"></rect><g transform="matrix(0.6666666666666666,0,0,0.6666666666666666,249.39393939393938,438.5856950067477)"><svg viewBox="0 0 396 247" data-background-color="#ffffff" preserveAspectRatio="xMidYMid meet" height="935" width="1500" xmlns="http://www.w3.org/2000/svg" xmlns:xlink="http://www.w3.org/1999/xlink"><g id="tight-bounds" transform="matrix(1,0,0,1,0.2400000000000091,-0.09999999999999432)"><svg viewBox="0 0 395.52 247.2" height="247.2" width="395.52"><g><svg></svg></g><g><svg viewBox="0 0 395.52 247.2" height="247.2" width="395.52"><g transform="matrix(1,0,0,1,75.54432000000001,93.40742727989488)"><svg viewBox="0 0 244.43135999999996 60.38514544021024" height="60.38514544021024" width="244.43135999999996"><g><svg viewBox="0 0 244.43135999999996 60.38514544021024" height="60.38514544021024" width="244.43135999999996"><g><svg viewBox="0 0 244.43135999999996 60.38514544021024" height="60.38514544021024" width="244.43135999999996"><g><svg viewBox="0 0 244.43135999999996 60.38514544021024" height="60.38514544021024" width="244.43135999999996"><g id="textblocktransform"><svg viewBox="0 0 244.43135999999996 60.38514544021024" height="60.38514544021024" width="244.43135999999996" id="textblock"><g><svg viewBox="0 0 244.43135999999996 60.38514544021024" height="60.38514544021024" width="244.43135999999996"><g transform="matrix(1,0,0,1,0,0)"><svg width="244.43135999999996" viewBox="1.1 -37 152.19 37.6" height="60.38514544021024" data-palette-color="#0074d9"><path d="M27.5-31.2L16.4-31.2 16.4 0 12.2 0 12.2-31.2 1.1-31.2 1.1-34.9 27.5-34.9 27.5-31.2ZM50.35 0L48.1 0Q45.85 0 44.87-1.2 43.9-2.4 43.65-4.2L43.65-4.2 43.4-4.2Q42.55-1.8 40.6-0.6 38.65 0.6 35.95 0.6L35.95 0.6Q31.85 0.6 29.57-1.5 27.3-3.6 27.3-7.2L27.3-7.2Q27.3-10.85 29.97-12.8 32.65-14.75 38.3-14.75L38.3-14.75 43.4-14.75 43.4-17.3Q43.4-20.05 41.9-21.5 40.4-22.95 37.3-22.95L37.3-22.95Q34.95-22.95 33.37-21.9 31.8-20.85 30.75-19.1L30.75-19.1 28.35-21.35Q29.4-23.45 31.7-24.93 34-26.4 37.5-26.4L37.5-26.4Q42.2-26.4 44.8-24.1 47.4-21.8 47.4-17.7L47.4-17.7 47.4-3.5 50.35-3.5 50.35 0ZM36.6-2.8L36.6-2.8Q38.1-2.8 39.35-3.15 40.6-3.5 41.5-4.15 42.4-4.8 42.9-5.65 43.4-6.5 43.4-7.5L43.4-7.5 43.4-11.75 38.1-11.75Q34.65-11.75 33.07-10.75 31.5-9.75 31.5-7.85L31.5-7.85 31.5-6.8Q31.5-4.9 32.87-3.85 34.25-2.8 36.6-2.8ZM58.05-31.85L58.05-31.85Q56.75-31.85 56.17-32.48 55.59-33.1 55.59-34.1L55.59-34.1 55.59-34.75Q55.59-35.75 56.17-36.38 56.75-37 58.05-37L58.05-37Q59.34-37 59.92-36.38 60.5-35.75 60.5-34.75L60.5-34.75 60.5-34.1Q60.5-33.1 59.92-32.48 59.34-31.85 58.05-31.85ZM56.05 0L56.05-25.8 60.05-25.8 60.05 0 56.05 0ZM90.79 0L90.79-15.8 73.14-15.8 73.14 0 68.94 0 68.94-34.9 73.14-34.9 73.14-19.5 90.79-19.5 90.79-34.9 94.99-34.9 94.99 0 90.79 0ZM119.79 0L119.79-4.2 119.59-4.2Q119.19-3.3 118.62-2.43 118.04-1.55 117.19-0.88 116.34-0.2 115.14 0.2 113.94 0.6 112.34 0.6L112.34 0.6Q108.34 0.6 105.99-1.98 103.64-4.55 103.64-9.25L103.64-9.25 103.64-25.8 107.64-25.8 107.64-9.95Q107.64-3 113.54-3L113.54-3Q114.74-3 115.87-3.3 116.99-3.6 117.87-4.2 118.74-4.8 119.27-5.73 119.79-6.65 119.79-7.95L119.79-7.95 119.79-25.8 123.79-25.8 123.79 0 119.79 0ZM153.29 0L151.04 0Q148.79 0 147.81-1.2 146.84-2.4 146.59-4.2L146.59-4.2 146.34-4.2Q145.49-1.8 143.54-0.6 141.59 0.6 138.89 0.6L138.89 0.6Q134.79 0.6 132.51-1.5 130.24-3.6 130.24-7.2L130.24-7.2Q130.24-10.85 132.91-12.8 135.59-14.75 141.24-14.75L141.24-14.75 146.34-14.75 146.34-17.3Q146.34-20.05 144.84-21.5 143.34-22.95 140.24-22.95L140.24-22.95Q137.89-22.95 136.31-21.9 134.74-20.85 133.69-19.1L133.69-19.1 131.29-21.35Q132.34-23.45 134.64-24.93 136.94-26.4 140.44-26.4L140.44-26.4Q145.14-26.4 147.74-24.1 150.34-21.8 150.34-17.7L150.34-17.7 150.34-3.5 153.29-3.5 153.29 0ZM139.54-2.8L139.54-2.8Q141.04-2.8 142.29-3.15 143.54-3.5 144.44-4.15 145.34-4.8 145.84-5.65 146.34-6.5 146.34-7.5L146.34-7.5 146.34-11.75 141.04-11.75Q137.59-11.75 136.01-10.75 134.44-9.75 134.44-7.85L134.44-7.85 134.44-6.8Q134.44-4.9 135.81-3.85 137.19-2.8 139.54-2.8Z" opacity="1" transform="matrix(1,0,0,1,0,0)" fill="#0074d9" class="wordmark-text-0" data-fill-palette-color="primary" id="text-0"></path></svg></g></svg></g></svg></g></svg></g></svg></g></svg></g></svg></g><path d="M196.669 87.407L196.669 28.754 386.36 28.754 386.36 218.446 196.669 218.446 196.669 159.793 202.114 159.793 202.114 213 380.915 213 380.915 34.2 202.114 34.2 202.114 87.407Z" fill="#0074d9" stroke="transparent" data-fill-palette-color="tertiary"></path></svg></g><defs></defs></svg><rect width="395.52" height="247.2" fill="none" stroke="none" visibility="hidden"></rect></g></svg></g></svg>